<svg fill="#ffffff" xmlns="http://www.w3.org/2000/svg" viewBox="0 0 64 64"><path d="M60,33H45.641l8.888-8.205C57.098,24.116,59,21.779,59,19c0-3.309-2.691-6-6-6s-6,2.691-6,6   c0,0.75,0.145,1.466,0.397,2.128l-4.924,4.163C41.932,25.748,41.244,26,40.536,26H37v-2.111c0.546-0.558,0.995-1.209,1.331-1.923   C40.38,21.795,42,20.093,42,18v-5h3c1.654,0,3-1.346,3-3s-1.346-3-3-3h-3.525C40.235,3.51,36.909,1,33,1h-2c-4.962,0-9,4.037-9,9v8   c0,2.093,1.62,3.795,3.669,3.966c0.336,0.714,0.785,1.365,1.331,1.923V26h-3.479c-0.736,0-1.443-0.27-1.993-0.758l-7.073-6.286   C13.762,18.34,12.87,18,11.942,18h-0.161C9.696,18,8,19.696,8,21.782c0,1.053,0.443,2.065,1.217,2.778L18.359,33H4   c-1.654,0-3,1.346-3,3v24c0,1.654,1.346,3,3,3h16c1.654,0,3-1.346,3-3v-9h12v-2H23v-2h18v2h-4v2h4v9c0,1.654,1.346,3,3,3h16   c1.654,0,3-1.346,3-3V36C63,34.346,61.654,33,60,33z M53,15c2.206,0,4,1.794,4,4s-1.794,4-4,4s-4-1.794-4-4S50.794,15,53,15z    M35,26.735l-3,5.25l-3-5.25v-1.42C29.911,25.749,30.925,26,32,26s2.089-0.251,3-0.685V26.735z M32,24c-2.757,0-5-2.243-5-5v-6h10   v6C37,21.757,34.757,24,32,24z M25,14.142c-0.356,0.093-0.69,0.233-1,0.414V13h1V14.142z M38.959,19.744   C38.985,19.499,39,19.251,39,19v-2.722c0.595,0.347,1,0.985,1,1.722C40,18.753,39.576,19.403,38.959,19.744z M40,14.556   c-0.31-0.181-0.644-0.322-1-0.414V13h1V14.556z M45,9c0.551,0,1,0.448,1,1s-0.449,1-1,1h-3v-1c0-0.338-0.022-0.671-0.059-1H45z    M31,3h2c3.86,0,7,3.141,7,7v1H24v-1C24,6.141,27.14,3,31,3z M24,18c0-0.737,0.405-1.375,1-1.722V19   c0,0.251,0.015,0.499,0.041,0.744C24.424,19.403,24,18.753,24,18z M10,21.782C10,20.8,10.799,20,11.782,20h0.161   c0.437,0,0.857,0.16,1.184,0.45l5.396,4.796l-2.385,2.982l-5.564-5.136C10.209,22.755,10,22.278,10,21.782z M21,60   c0,0.552-0.449,1-1,1H4c-0.551,0-1-0.448-1-1V36c0-0.552,0.449-1,1-1h16c0.281,0,0.533,0.118,0.715,0.305   C20.893,35.609,21,35.954,21,36.313V40V60z M23,45v-5v-3.687V36c0-0.696-0.248-1.329-0.647-1.839   c-0.182-0.284-0.388-0.554-0.64-0.786l-4.102-3.787l2.409-3.011l0.179,0.159C21.115,27.552,22.295,28,23.521,28h3.899l3.092,5.411   C29.613,33.93,29,34.89,29,36c0,1.654,1.346,3,3,3c0.551,0,1,0.448,1,1s-0.449,1-1,1s-1-0.448-1-1h-2c0,1.654,1.346,3,3,3   s3-1.346,3-3s-1.346-3-3-3c-0.551,0-1-0.448-1-1s0.449-1,1-1s1,0.448,1,1h2c0-1.11-0.613-2.07-1.512-2.589L36.58,28h3.955   c1.18,0,2.327-0.42,3.228-1.182l4.664-3.943c0.802,0.945,1.891,1.634,3.13,1.942l-8.948,8.26c-0.241,0.222-0.453,0.47-0.643,0.731   C41.376,34.357,41,35.133,41,36v0.751V39v6H23z M61,60c0,0.552-0.449,1-1,1H44c-0.551,0-1-0.448-1-1V39v-2.249   c0-0.561,0.171-1.101,0.461-1.571C43.619,35.076,43.797,35,44,35h16c0.551,0,1,0.448,1,1V60z"></path><path d="M52,37c-3.86,0-7,3.141-7,7s3.14,7,7,7s7-3.141,7-7S55.86,37,52,37z M52,49c-2.757,0-5-2.243-5-5s2.243-5,5-5s5,2.243,5,5   S54.757,49,52,49z"></path><path d="M52,41c-1.654,0-3,1.346-3,3s1.346,3,3,3s3-1.346,3-3S53.654,41,52,41z M52,45c-0.551,0-1-0.448-1-1s0.449-1,1-1   s1,0.448,1,1S52.551,45,52,45z"></path><rect x="30" y="7" width="4" height="2"></rect><rect x="36" y="7" width="2" height="2"></rect><rect x="26" y="7" width="2" height="2"></rect><path d="M45,59h14v-6H45V59z M47,55h10v2H47V55z"></path><path d="M12,37c-3.86,0-7,3.141-7,7s3.14,7,7,7s7-3.141,7-7S15.86,37,12,37z M12,49c-2.757,0-5-2.243-5-5s2.243-5,5-5s5,2.243,5,5   S14.757,49,12,49z"></path><path d="M12,41c-1.654,0-3,1.346-3,3s1.346,3,3,3s3-1.346,3-3S13.654,41,12,41z M12,45c-0.551,0-1-0.448-1-1s0.449-1,1-1   s1,0.448,1,1S12.551,45,12,45z"></path><path d="M5,59h14v-6H5V59z M7,55h10v2H7V55z"></path></svg>