<svg fill="#ffffff" xmlns="http://www.w3.org/2000/svg" viewBox="0 0 64 64"><path d="M35.908,23.092C35.479,20.768,33.446,19,31,19h-2v-2c1.103,0,2-0.897,2-2V5c0-1.103-0.897-2-2-2h-6c-1.103,0-2,0.897-2,2   v10c0,1.103,0.897,2,2,2v2h-2c-2.446,0-4.479,1.768-4.908,4.092C13.768,23.521,12,25.554,12,28v30c0,2.757,2.243,5,5,5h18   c2.757,0,5-2.243,5-5V28C40,25.554,38.232,23.521,35.908,23.092z M38,29v26H14V29H38z M29.001,11H27V9h2L29.001,11z M23,5h6l0,2h-4   v6h4.001l0,2H23V5z M25,17h2v2h-2V17z M21,21h10c1.302,0,2.402,0.839,2.816,2H18.184C18.598,21.839,19.698,21,21,21z M17,25h18   c1.302,0,2.402,0.839,2.816,2H14.184C14.598,25.839,15.698,25,17,25z M35,61H17c-1.654,0-3-1.346-3-3v-1h24v1   C38,59.654,36.654,61,35,61z"></path><rect x="32.754" y="3" transform="matrix(0.9702 -0.2422 0.2422 0.9702 0.2519 10.0489)" width="16.492" height="2"></rect><rect x="40" y="7.754" transform="matrix(0.2425 -0.9701 0.9701 0.2425 15.5338 51.8953)" width="2" height="16.492"></rect><rect x="33" y="9" width="4" height="2"></rect><rect x="39" y="9" width="2" height="2"></rect><rect x="43" y="9" width="2" height="2"></rect><rect x="47" y="9" width="4" height="2"></rect><path d="M36,53V36c0-2.757-2.243-5-5-5H21c-2.757,0-5,2.243-5,5v17H36z M18,36c0-1.654,1.346-3,3-3h10c1.654,0,3,1.346,3,3v15H18   V36z"></path></svg>