<svg fill="#ffffff" xmlns="http://www.w3.org/2000/svg" viewBox="0 0 64 64"><path d="M61.673,37.296C62.554,34.548,63,31.693,63,28.809C63,13.475,50.525,1,35.191,1h-6.382C13.475,1,1,13.475,1,28.809   c0,2.884,0.446,5.739,1.327,8.487l1.587,4.952C2.098,44.147,1,46.715,1,49.531v0.938c0,3.77,2.033,7.273,5.306,9.144   C7.895,60.52,9.701,61,11.531,61h2.75c1.014,1.23,2.533,2,4.212,2h1.032C22.544,63,25,60.544,25,57.525   c0-0.425-0.05-0.852-0.149-1.268l-4.06-17.051C20.202,36.729,18.012,35,15.466,35h-0.991c-1.548,0-2.946,0.649-3.943,1.686   l-0.587-1.831C9.318,32.898,9,30.865,9,28.81C9,17.887,17.887,9,28.81,9h6.381C46.113,9,55,17.887,55,28.81   c0,2.055-0.318,4.089-0.945,6.046l-0.586,1.83C52.471,35.649,51.074,35,49.525,35h-0.991c-2.546,0-4.736,1.729-5.326,4.207   l-4.06,17.052C39.05,56.674,39,57.1,39,57.525C39,60.544,41.456,63,44.475,63h1.032c1.679,0,3.198-0.77,4.212-2h2.75   c1.83,0,3.637-0.48,5.225-1.388C60.967,57.742,63,54.239,63,50.469v-0.938c0-2.825-1.105-5.4-2.93-7.301L61.673,37.296z M25,3.283   c0.659-0.098,1.326-0.166,2-0.213v4.01c-0.676,0.056-1.343,0.143-2,0.259V3.283z M23,7.792c-2.412,0.667-4.656,1.739-6.656,3.138   l-2.867-2.867C16.273,5.991,19.502,4.475,23,3.667V7.792z M29,3h2v4h-2V3z M33,3h2v4h-2V3z M37,3.07   c0.674,0.047,1.341,0.115,2,0.213V7.34c-0.657-0.116-1.324-0.203-2-0.259V3.07z M41,3.667c3.498,0.808,6.727,2.323,9.523,4.396   l-2.867,2.867C45.656,9.53,43.412,8.459,41,7.792V3.667z M11.531,59c-1.482,0-2.946-0.389-4.233-1.124   C4.647,56.361,3,53.523,3,50.469v-0.938c0-3.805,2.464-7.057,6-8.143v0.061c0,0.448,0.055,0.895,0.164,1.328l4.019,16.077   c0.013,0.051,0.036,0.096,0.05,0.146H11.531z M14.475,37h0.991c1.616,0,3.006,1.098,3.38,2.669l4.059,17.05   C22.968,56.984,23,57.255,23,57.525C23,59.441,21.441,61,19.525,61h-1.032c-1.597,0-2.983-1.082-3.371-2.632l-4.019-16.077   C11.035,42.016,11,41.733,11,41.449v-0.975C11,38.559,12.559,37,14.475,37z M9.193,39.058c-0.02,0.074-0.041,0.148-0.058,0.224   c-1.308,0.302-2.514,0.834-3.572,1.558l-1.331-4.154C3.414,34.136,3,31.485,3,28.809c0-1.998,0.236-3.94,0.667-5.809h4.124   C7.279,24.851,7,26.798,7,28.81c0,2.263,0.35,4.502,1.041,6.656L9.193,39.058z M8.451,21H4.211   c1.456-4.575,4.157-8.597,7.701-11.674l2.834,2.834C11.965,14.511,9.781,17.545,8.451,21z M49.255,12.159l2.834-2.834   c3.544,3.078,6.245,7.099,7.701,11.674h-4.241C54.219,17.545,52.035,14.511,49.255,12.159z M55.959,35.466   C56.65,33.312,57,31.072,57,28.81c0-2.012-0.279-3.959-0.792-5.81h4.124C60.764,24.869,61,26.811,61,28.809   c0,2.676-0.414,5.327-1.231,7.876l-1.332,4.154c-1.058-0.724-2.264-1.255-3.572-1.558c-0.017-0.075-0.037-0.148-0.057-0.222   L55.959,35.466z M45.506,61h-1.032C42.559,61,41,59.441,41,57.525c0-0.27,0.032-0.541,0.094-0.805l4.06-17.051   C45.528,38.098,46.918,37,48.534,37h0.991C51.441,37,53,38.559,53,40.475v0.975c0,0.284-0.035,0.567-0.104,0.842l-4.019,16.077   C48.49,59.918,47.104,61,45.506,61z M61,50.469c0,3.054-1.647,5.892-4.298,7.407C55.415,58.611,53.951,59,52.469,59h-1.701   c0.014-0.05,0.037-0.096,0.05-0.146l4.019-16.076C54.945,42.344,55,41.897,55,41.449v-0.061c3.536,1.086,6,4.338,6,8.143V50.469z"></path><path d="M56.505,47.455C56.833,48.098,57,48.797,57,49.531v0.938c0,1.476-0.723,2.864-1.934,3.712l1.147,1.638   C57.958,54.597,59,52.597,59,50.469v-0.938c0-1.039-0.247-2.071-0.714-2.986L56.505,47.455z"></path><path d="M7,50.469v-0.938c0-0.734,0.167-1.433,0.495-2.077l-1.781-0.909C5.247,47.46,5,48.493,5,49.531v0.938   c0,2.128,1.042,4.128,2.787,5.35l1.147-1.638C7.723,53.333,7,51.945,7,50.469z"></path></svg>