<svg fill="#ffffff" xmlns="http://www.w3.org/2000/svg" viewBox="0 0 64 64"><path d="M26,35h-2c-1.103,0-2,0.897-2,2v8c0,1.103,0.897,2,2,2h2c1.103,0,2-0.897,2-2v-8C28,35.897,27.103,35,26,35z M26,37l0,2h-2   v-2H26z M24,45v-4h2.001l0.001,4H24z"></path><path d="M49,14c0-4.963-4.037-9-9-9v2c3.859,0,7,3.141,7,7s-3.141,7-7,7v2C44.963,23,49,18.963,49,14z"></path><path d="M45,14c0-2.757-2.243-5-5-5v2c1.654,0,3,1.346,3,3s-1.346,3-3,3v2C42.757,19,45,16.757,45,14z"></path><path d="M1,14c0,4.963,4.037,9,9,9v-2c-3.859,0-7-3.141-7-7s3.141-7,7-7V5C5.037,5,1,9.037,1,14z"></path><path d="M5,14c0,2.757,2.243,5,5,5v-2c-1.654,0-3-1.346-3-3s1.346-3,3-3V9C7.243,9,5,11.243,5,14z"></path><path d="M63,44h-4.184c-0.414-1.161-1.514-2-2.816-2h-8c-1.302,0-2.402,0.839-2.816,2H43c-2.757,0-5,2.243-5,5v9   c0,1.654-1.346,3-3,3h-8c-0.552,0-1-0.448-1-1v-1c1.654,0,3-1.346,3-3v-1.158c1.166-0.377,2.023-1.433,2.073-2.727l0.917-23.842   l4.429-8.119C37.453,18.257,38,16.112,38,13.952C38,6.811,32.189,1,24.952,1C17.811,1,12,6.811,12,13.952   c0,2.16,0.547,4.305,1.581,6.202l4.429,8.119l0.917,23.843c0.051,1.293,0.907,2.349,2.073,2.726V56c0,1.654,1.346,3,3,3v1   c0,1.654,1.346,3,3,3h8c2.757,0,5-2.243,5-5v-9c0-1.654,1.346-3,3-3h2.184c0.414,1.161,1.514,2,2.816,2h8   c1.302,0,2.402-0.839,2.816-2H63V44z M20.039,29h9.922l-0.077,2h-9.768L20.039,29z M20.193,33h9.615l-0.615,16h-8.384L20.193,33z    M20.237,4.769l-1.903,2.814l-1.02-1.454c0.755-0.734,1.616-1.361,2.561-1.857L20.237,4.769z M30.124,4.256   c0.946,0.497,1.809,1.127,2.567,1.867l-0.953,1.363l-1.875-2.87L30.124,4.256z M35.341,13l-2.424-3.71l1.112-1.589   c1.068,1.529,1.754,3.34,1.924,5.299H35.341z M32.952,13H30.32l1.361-1.945L32.952,13z M30.503,9.251l-2.217,3.168L26.232,9.6   l2.371-3.257L30.503,9.251z M26.234,13h-2.477l1.238-1.7L26.234,13z M21.715,12.405l-2.152-3.069l1.927-2.848l2.268,3.113   L21.715,12.405z M19.69,13h-2.606l1.28-1.892L19.69,13z M17.135,9.356L14.669,13h-0.621c0.17-1.958,0.856-3.768,1.927-5.297   L17.135,9.356z M14.066,15h21.868c-0.066,0.678-0.195,1.346-0.385,2H14.451C14.261,16.346,14.132,15.678,14.066,15z M25.048,3   c0.489,0,0.968,0.043,1.44,0.106l0.945,1.447l-2.439,3.349l-2.314-3.175l1.118-1.652C24.209,3.028,24.625,3,25.048,3z M15.245,19   h19.51c-0.034,0.065-0.057,0.133-0.092,0.197L30.406,27H19.594l-4.257-7.803C15.302,19.133,15.278,19.065,15.245,19z M20.885,51   h8.23l-0.04,1.038c-0.021,0.539-0.461,0.962-1,0.962h-6.15c-0.539,0-0.979-0.423-1-0.961L20.885,51z M23,56v-1h4v1   c0,0.552-0.448,1-1,1h-2C23.448,57,23,56.552,23,56z M47,45c0-0.552,0.448-1,1-1h3v2h-3C47.448,46,47,45.552,47,45z M56,46h-3v-2h3   c0.552,0,1,0.448,1,1S56.552,46,56,46z"></path></svg>