<svg fill="#ffffff" xmlns="http://www.w3.org/2000/svg" viewBox="0 0 64 64"><path d="M58,12H6c-2.757,0-5,2.243-5,5v30c0,2.757,2.243,5,5,5h52c2.757,0,5-2.243,5-5V17C63,14.243,60.757,12,58,12z M10.721,18   l-1.333-4H17v4H10.721z M19,14h2v4h-2V14z M23,14h6v4h-6V14z M31,14h2v4h-2V14z M35,14h6v4h-6V14z M43,14h2v4h-2V14z M47,14h7.612   l-1.333,4H47V14z M61,47c0,1.654-1.346,3-3,3H6c-1.654,0-3-1.346-3-3V17c0-1.654,1.346-3,3-3h1.279l2,6h45.441l2-6H58   c1.654,0,3,1.346,3,3V47z"></path><path d="M8.586,24L5,27.586v14.828L8.586,46h46.828L59,42.414V27.586L55.414,24H8.586z M9,36H7v-2h2V36z M54.586,44H9.414L7,41.586   V38h2.101c0.465,2.279,2.484,4,4.899,4h36c2.414,0,4.434-1.721,4.899-4H57v3.586L54.586,44z M37.101,34   c0.399-1.956,1.943-3.5,3.899-3.899V32h2v-1.899c1.956,0.399,3.5,1.943,3.899,3.899H45v2h1.899C46.5,37.956,44.956,39.5,43,39.899   V38h-2v1.899C39.044,39.5,37.5,37.956,37.101,36H39v-2H37.101z M49,35c0-1.958-0.81-3.728-2.11-5H50c1.654,0,3,1.346,3,3v4   c0,1.654-1.346,3-3,3h-3.11C48.19,38.728,49,36.958,49,35z M35,35c0,1.958,0.81,3.728,2.11,5H26.89c1.3-1.272,2.11-3.042,2.11-5   s-0.81-3.728-2.11-5H37.11C35.81,31.272,35,33.042,35,35z M17.101,34c0.399-1.956,1.943-3.5,3.899-3.899V32h2v-1.899   c1.956,0.399,3.5,1.943,3.899,3.899H25v2h1.899C26.5,37.956,24.956,39.5,23,39.899V38h-2v1.899C19.044,39.5,17.5,37.956,17.101,36   H19v-2H17.101z M15,35c0,1.958,0.81,3.728,2.11,5H14c-1.654,0-3-1.346-3-3v-4c0-1.654,1.346-3,3-3h3.11   C15.81,31.272,15,33.042,15,35z M55,34h2v2h-2V34z M57,32h-2.101c-0.465-2.279-2.484-4-4.899-4H14c-2.414,0-4.434,1.721-4.899,4H7   v-3.586L9.414,26h45.172L57,28.414V32z"></path></svg>